<?xml version="1.0" encoding="utf-8"?>
<!-- Generator: Adobe Illustrator 16.0.0, SVG Export Plug-In . SVG Version: 6.00 Build 0)  -->
<!DOCTYPE svg PUBLIC "-//W3C//DTD SVG 1.1//EN" "http://www.w3.org/Graphics/SVG/1.1/DTD/svg11.dtd">
<svg version="1.1" id="Layer_1" xmlns="http://www.w3.org/2000/svg" xmlns:xlink="http://www.w3.org/1999/xlink" x="0px" y="0px"
	 width="403.14px" height="75.14px" viewBox="0 0 403.14 75.14" enable-background="new 0 0 403.14 75.14" xml:space="preserve">
<g>
	<g>
		<g>
			<g>
				<path fill="#232323" d="M30.11,53.802c-2.573,3.026-6.349,4.539-11.328,4.539c-4.122,0-7.261-1.197-9.417-3.592
					c-2.156-2.395-3.247-5.938-3.27-10.631V18.96h6.611V43.94c0,5.86,2.382,8.79,7.147,8.79c5.051,0,8.41-1.881,10.078-5.646V18.96
					h6.611v38.666h-6.289L30.11,53.802z"/>
			</g>
		</g>
		<g>
			<g>
				<path fill="#232323" d="M52.838,18.96l0.214,4.86c2.954-3.716,6.813-5.575,11.578-5.575c8.171,0,12.293,4.61,12.365,13.83
					v25.551h-6.611V32.04c-0.024-2.787-0.661-4.848-1.912-6.182c-1.251-1.334-3.198-2.001-5.843-2.001
					c-2.144,0-4.026,0.572-5.646,1.715s-2.883,2.644-3.788,4.502v27.552h-6.611V18.96H52.838z"/>
			</g>
		</g>
		<g>
			<g>
				<path fill="#232323" d="M94.149,57.626h-6.611V2.736h6.611V57.626z"/>
			</g>
		</g>
		<g>
			<g>
				<path fill="#232323" d="M104.762,8.705c0-1.072,0.327-1.978,0.983-2.716c0.655-0.738,1.626-1.107,2.913-1.107
					c1.286,0,2.263,0.37,2.93,1.107c0.667,0.739,1,1.644,1,2.716c0,1.072-0.334,1.965-1,2.68c-0.667,0.714-1.644,1.072-2.93,1.072
					c-1.287,0-2.258-0.357-2.913-1.072C105.089,10.67,104.762,9.776,104.762,8.705z M111.909,57.626h-6.611V18.96h6.611V57.626z"/>
			</g>
		</g>
		<g>
			<g>
				<path fill="#232323" d="M128.705,18.96l0.179,4.288c2.834-3.335,6.658-5.003,11.471-5.003c5.408,0,9.089,2.073,11.042,6.218
					c1.287-1.858,2.96-3.359,5.021-4.503c2.06-1.144,4.497-1.715,7.308-1.715c8.481,0,12.793,4.491,12.937,13.473v25.908h-6.611
					V32.111c0-2.764-0.632-4.83-1.894-6.2c-1.263-1.37-3.383-2.055-6.361-2.055c-2.454,0-4.491,0.732-6.111,2.198
					c-1.62,1.465-2.561,3.437-2.823,5.914v25.658h-6.647V32.29c0-5.623-2.751-8.434-8.255-8.434c-4.336,0-7.302,1.846-8.898,5.539
					v28.231h-6.611V18.96H128.705z"/>
			</g>
		</g>
		<g>
			<g>
				<path fill="#232323" d="M186.668,8.705c0-1.072,0.327-1.978,0.982-2.716c0.655-0.738,1.626-1.107,2.912-1.107
					c1.287,0,2.264,0.37,2.931,1.107c0.667,0.739,1.001,1.644,1.001,2.716c0,1.072-0.334,1.965-1.001,2.68
					c-0.667,0.714-1.644,1.072-2.931,1.072c-1.286,0-2.257-0.357-2.912-1.072C186.996,10.67,186.668,9.776,186.668,8.705z
					 M193.815,57.626h-6.61V18.96h6.61V57.626z"/>
			</g>
		</g>
		<g>
			<g>
				<path fill="#232323" d="M213.363,9.598v9.363h7.219v5.11h-7.219V48.08c0,1.551,0.321,2.713,0.965,3.488s1.738,1.162,3.288,1.162
					c0.762,0,1.81-0.143,3.145-0.428v5.328c-1.739,0.475-3.431,0.711-5.074,0.711c-2.955,0-5.182-0.894-6.683-2.68
					c-1.501-1.787-2.252-4.324-2.252-7.612V24.071h-7.04v-5.11h7.04V9.598H213.363z"/>
			</g>
		</g>
		<g>
			<g>
				<path fill="#232323" d="M244.345,58.341c-5.241,0-9.505-1.721-12.793-5.164c-3.288-3.442-4.932-8.046-4.932-13.812V38.15
					c0-3.835,0.732-7.259,2.198-10.273c1.465-3.014,3.514-5.372,6.146-7.076c2.632-1.703,5.485-2.555,8.559-2.555
					c5.026,0,8.934,1.656,11.721,4.967c2.788,3.312,4.182,8.053,4.182,14.223v2.751h-26.194c0.095,3.813,1.209,6.893,3.341,9.238
					c2.132,2.347,4.843,3.52,8.13,3.52c2.335,0,4.313-0.477,5.933-1.43c1.62-0.952,3.037-2.215,4.252-3.787l4.039,3.145
					C255.686,55.852,250.826,58.341,244.345,58.341z M243.524,23.678c-2.669,0-4.908,0.971-6.719,2.912
					c-1.811,1.942-2.93,4.664-3.359,8.166h19.369v-0.5c-0.19-3.359-1.096-5.962-2.716-7.808S246.288,23.678,243.524,23.678z"/>
			</g>
		</g>
		<g>
			<path fill="#232323" d="M300.698,4.952l-6.5-0.002l-0.013,34.135l0,0c-0.036,7.045-4.561,12.84-10.086,12.916
				c-2.348,0.025-6.696-0.361-9.743-3.366c-2.273-2.242-3.426-5.623-3.426-10.05c0-11.834,5.38-13.352,10.067-13.352
				c2.625,0,4.785,0.158,6.705,2.139l4.668-4.522c-3.987-4.116-8.792-4.116-11.373-4.116c-6.188,0-16.567,2.579-16.567,19.852
				c0,6.23,1.804,11.169,5.362,14.678c4.578,4.515,10.644,5.24,14.063,5.24c0.114,0,0.226-0.002,0.334-0.003
				c9.042-0.126,16.442-8.819,16.496-19.382l-3.25-0.016h3.25L300.698,4.952z"/>
		</g>
	</g>
</g>
<g>
	<g>
		<path fill="#8D2574" d="M352.339,4.881c-1.286,0-2.257,0.37-2.912,1.107c-0.655,0.739-0.982,1.644-0.982,2.716
			c0,1.072,0.327,1.965,0.982,2.68c0.655,0.714,1.626,1.072,2.912,1.072c1.287,0,2.264-0.357,2.931-1.072
			c0.667-0.715,1.001-1.608,1.001-2.68c0-1.072-0.334-1.978-1.001-2.716C354.603,5.25,353.626,4.881,352.339,4.881z"/>
		<rect x="348.981" y="18.96" fill="#8D2574" width="6.61" height="38.666"/>
		<path fill="#8D2574" d="M387.86,50.8c-1.763,1.43-3.823,2.145-6.182,2.145c-3.407,0-6.028-1.203-7.862-3.609
			c-1.835-2.406-2.752-5.836-2.752-10.291v-1.252c0-4.573,0.923-8.069,2.77-10.488c1.847-2.417,4.449-3.627,7.809-3.627
			c2.502,0,4.604,0.804,6.308,2.412c1.703,1.608,2.649,3.663,2.841,6.164h6.254c-0.191-4.145-1.722-7.516-4.593-10.113
			s-6.474-3.896-10.81-3.896c-3.526,0-6.581,0.811-9.166,2.43c-2.586,1.621-4.568,3.895-5.95,6.826
			c-1.382,2.93-2.072,6.278-2.072,10.041v1.108c0,6.099,1.554,10.905,4.663,14.419c3.109,3.515,7.296,5.271,12.562,5.271
			c2.62,0,5.104-0.596,7.45-1.787s4.223-2.787,5.629-4.789c1.405-2,2.167-4.109,2.287-6.324h-6.254
			C390.599,47.585,389.623,49.372,387.86,50.8z"/>
		<path fill="#8D2574" d="M321.747,18.854c-9.042,0.125-16.442,8.82-16.496,19.382l3.25,0.016h-3.25l-0.013,34.15l6.5,0.002
			l0.013-34.135l0,0c0.036-7.045,4.561-12.839,10.086-12.916c2.36-0.02,6.697,0.362,9.743,3.366
			c2.273,2.242,3.426,5.623,3.426,10.05c0,11.834-5.38,13.352-10.067,13.352c-2.625,0-4.785-0.158-6.705-2.139l-4.668,4.522
			c3.987,4.116,8.792,4.116,11.373,4.116c6.188,0,16.567-2.579,16.567-19.852c0-6.231-1.804-11.169-5.362-14.678
			C331.413,19.426,325.102,18.816,321.747,18.854z"/>
	</g>
</g>
</svg>
